<svg width="921" height="1024" viewBox="0 0 921 1024" fill="none" xmlns="http://www.w3.org/2000/svg">
<rect x="-25.5814" y="-27" width="630.457" height="1122" fill="#3A3A3A"/>
<path d="M411.592 329.149C482.018 224.749 240.905 177.149 14.4051 237.649C-2.09489 243.149 -100.424 325.175 -111.095 341.149C-181.685 446.821 -182.77 588.611 -159.287 831.149C-125.497 1180.15 91.0281 1117.15 367.575 1078.65C644.123 1040.15 816.187 1022.65 885.99 986.649C955.794 950.649 910.444 896.649 829.97 885.149C749.495 873.649 579.654 838.149 716.15 831.149C852.645 824.149 784.175 671.149 545.864 520.149C307.553 369.149 323.559 459.649 411.592 329.149Z" fill="#353535"/>
<path d="M460.187 559.061C566.538 413.461 232.991 453.394 52.9245 491.561C14.5398 507.227 -74.7675 554.361 -124.919 617.561C-187.609 696.561 -156.042 979.061 139.179 1084.56C434.4 1190.06 460.187 926.061 311.687 847.061C163.188 768.061 327.249 741.061 460.187 559.061Z" fill="#1F1F1F"/>
<path d="M389.939 518.061C496.289 372.461 162.743 412.394 -17.3238 450.561C-55.7085 466.227 -145.016 513.361 -195.168 576.561C-257.858 655.561 -226.29 938.061 68.9305 1043.56C364.151 1149.06 389.939 885.061 241.439 806.061C92.9394 727.061 257 700.061 389.939 518.061Z" fill="#474747"/>
</svg>
