<svg width="296" height="86" viewBox="0 0 296 86" fill="none" xmlns="http://www.w3.org/2000/svg">
<path d="M34.5833 9.10291C17.9962 12.339 5.43445 26.9812 5.43445 44.5C5.43445 62.0188 17.9962 76.661 34.5833 79.8971V73.971C21.1835 70.8531 11.2385 58.8667 11.2385 44.5C11.2385 30.1333 21.1835 18.147 34.5833 15.0291V9.10291Z" fill="#C83737"/>
<path d="M50.3536 9.10289V15.0291C57.3734 16.6624 63.436 20.7367 67.6255 26.3057V26.3192H67.6355C67.8795 26.6438 68.1183 26.9726 68.3493 27.3072H71.116C71.8961 28.4371 72.5874 29.6295 73.2105 30.8642H70.4438C70.6402 31.2534 70.821 31.6515 71.0012 32.05H71.5545C72.075 33.2006 72.5325 34.3858 72.9098 35.6072H72.3564C72.4767 35.9965 72.5706 36.3969 72.6755 36.7928H73.7822C74.0899 37.9537 74.3374 39.1381 74.506 40.35H73.3993C73.5881 41.7068 73.6984 43.0893 73.6984 44.5C73.6984 45.2659 73.6559 46.0211 73.6003 46.7725H72.4937C72.4044 47.9806 72.2407 49.1657 72.0144 50.3297H73.121C73.0042 50.9306 72.8584 51.5208 72.7069 52.1083H74.0902C73.9506 52.6492 73.7898 53.1805 73.6217 53.7092H72.2384C72.0789 54.2106 71.8974 54.7017 71.7131 55.1914H70.0531C69.2023 57.4519 68.0878 59.5785 66.7515 61.5431H68.4115C64.2244 67.6986 57.8434 72.2282 50.3536 73.9709V79.8971C61.1003 77.8005 70.1224 70.8989 75.159 61.5431H73.499C74.5819 59.5315 75.4762 57.4077 76.1663 55.1914H77.8263C77.9796 54.6988 78.143 54.2105 78.2756 53.7092H79.6589C79.7987 53.1806 79.9211 52.6461 80.0372 52.1083H78.6538C78.7813 51.5178 78.918 50.9305 79.0162 50.3297H77.9095C78.1003 49.1611 78.2403 47.9756 78.3156 46.7725H79.4222C79.455 46.2484 79.477 45.7215 79.4871 45.1917H78.6571C78.6613 44.9609 78.6725 44.7318 78.6725 44.5C78.6725 43.5334 78.6162 42.5808 78.5376 41.6344H79.3676C79.332 41.2055 79.3023 40.775 79.2528 40.35H80.3595C80.2191 39.1449 80.0184 37.9588 79.7613 36.7928H78.6546C78.2038 34.7483 77.5881 32.7646 76.8074 30.8642H79.5741C79.072 29.6421 78.4987 28.4583 77.8708 27.3072H75.1042C74.9246 26.978 74.7559 26.6421 74.5665 26.3192H73.4598C72.2101 24.1883 70.7298 22.2142 69.0845 20.3906H70.1912C65.0571 14.7002 58.1632 10.6265 50.3536 9.10287L50.3536 9.10289Z" fill="#FF8C8C"/>
<path d="M49.247 9.10289V15.0291C56.2668 16.6624 62.3294 20.7367 66.5189 26.3057V26.3192H66.5289C66.7729 26.6438 67.0117 26.9726 67.2427 27.3072H70.0094C70.7895 28.4371 71.4808 29.6295 72.1038 30.8642H69.3372C69.5336 31.2534 69.7143 31.6515 69.8946 32.05H70.4479C70.9684 33.2006 71.4259 34.3858 71.8031 35.6072H71.2498C71.37 35.9965 71.464 36.3969 71.5689 36.7928H72.6756C72.9833 37.9537 73.2308 39.1381 73.3994 40.35H72.2927C72.4815 41.7068 72.5918 43.0893 72.5918 44.5C72.5918 45.2659 72.5493 46.0211 72.4937 46.7725H71.3871C71.2978 47.9806 71.134 49.1657 70.9077 50.3297H72.0144C71.8976 50.9306 71.7518 51.5208 71.6002 52.1083H72.9836C72.844 52.6492 72.6832 53.1805 72.5151 53.7092H71.1317C70.9723 54.2106 70.7908 54.7017 70.6065 55.1914H68.9465C68.0957 57.4519 66.9812 59.5785 65.6449 61.5431H67.3049C63.1178 67.6986 56.7367 72.2282 49.247 73.9709V79.8971C59.9937 77.8005 69.0158 70.8989 74.0524 61.5431H72.3924C73.4753 59.5315 74.3695 57.4077 75.0596 55.1914H76.7196C76.873 54.6988 77.0364 54.2105 77.169 53.7092H78.5523C78.6921 53.1806 78.8145 52.6461 78.9305 52.1083H77.5472C77.6747 51.5178 77.8114 50.9305 77.9095 50.3297H76.8029C76.9937 49.1611 77.1337 47.9756 77.2089 46.7725H78.3156C78.3484 46.2484 78.3704 45.7215 78.3804 45.1917H77.5504C77.5546 44.9609 77.5658 44.7318 77.5658 44.5C77.5658 43.5334 77.5096 42.5808 77.431 41.6344H78.261C78.2254 41.2055 78.1957 40.775 78.1462 40.35H79.2528C79.1125 39.1449 78.9118 37.9588 78.6547 36.7928H77.548C77.0971 34.7483 76.4815 32.7646 75.7008 30.8642H78.4674C77.9654 29.6421 77.3921 28.4583 76.7642 27.3072H73.9975C73.8179 26.978 73.6493 26.6421 73.4599 26.3192H72.3532C71.1035 24.1883 69.6232 22.2142 67.9779 20.3906H69.0845C63.9505 14.7002 57.0566 10.6265 49.2469 9.10287L49.247 9.10289Z" fill="#FF1515"/>
<path d="M48.4167 9.10291V15.0291C55.4365 16.6624 61.4991 20.7367 65.6886 26.3057V26.3192H65.6986C65.9426 26.6439 66.1814 26.9726 66.4125 27.3072H69.1791C69.9592 28.4371 70.6505 29.6295 71.2736 30.8642H68.5069C68.7033 31.2534 68.8841 31.6516 69.0643 32.05H69.6176C70.1381 33.2006 70.5956 34.3858 70.9729 35.6072H70.4195C70.5398 35.9966 70.6337 36.397 70.7386 36.7928H71.8453C72.153 37.9537 72.4005 39.1381 72.5691 40.35H71.4624C71.6512 41.7068 71.7615 43.0894 71.7615 44.5C71.7615 45.2659 71.719 46.0212 71.6635 46.7725H70.5568C70.4675 47.9807 70.3038 49.1657 70.0775 50.3297H71.1842C71.0673 50.9307 70.9215 51.5208 70.77 52.1084H72.1533C72.0137 52.6493 71.8529 53.1805 71.6848 53.7092H70.3015C70.142 54.2106 69.9605 54.7017 69.7762 55.1914H68.1162C67.2654 57.4519 66.1509 59.5786 64.8146 61.5431H66.4746C62.2875 67.6986 55.9065 72.2282 48.4167 73.971V79.8971C59.1634 77.8005 68.1855 70.899 73.2221 61.5431H71.5621C72.645 59.5316 73.5393 57.4077 74.2294 55.1914H75.8894C76.0428 54.6988 76.2061 54.2105 76.3387 53.7092H77.722C77.8618 53.1806 77.9842 52.6461 78.1003 52.1084H76.7169C76.8444 51.5178 76.9812 50.9305 77.0793 50.3297H75.9726C76.1634 49.1611 76.3034 47.9756 76.3787 46.7725H77.4853C77.5181 46.2484 77.5401 45.7215 77.5502 45.1917H76.7202C76.7244 44.9609 76.7356 44.7318 76.7356 44.5C76.7356 43.5334 76.6793 42.5808 76.6008 41.6345H77.4308C77.3952 41.2055 77.3654 40.775 77.3159 40.35H78.4226C78.2823 39.1449 78.0816 37.9588 77.8244 36.7928H76.7178C76.2669 34.7483 75.6512 32.7646 74.8705 30.8642H77.6372C77.1352 29.6421 76.5619 28.4583 75.934 27.3072H73.1673C72.9877 26.978 72.819 26.6421 72.6296 26.3192H71.523C70.2733 24.1883 68.793 22.2142 67.1476 20.3906H68.2543C63.1203 14.7002 56.2264 10.6266 48.4167 9.10291Z" fill="#C83737"/>
<path d="M40.3636 3C39.2688 3 38.3875 3.8813 38.3875 4.97611V18.5879C39.4197 18.453 40.4591 18.3799 41.5 18.3691C42.5407 18.3759 43.5801 18.4449 44.6125 18.5757V4.97611C44.6125 3.8813 43.7312 3 42.6364 3H40.3636ZM44.6125 70.4121C43.5803 70.547 42.5409 70.6201 41.5 70.631C40.4593 70.6241 39.42 70.5551 38.3875 70.4243V84.0239C38.3875 85.1187 39.2688 86 40.3636 86H42.6364C43.7312 86 44.6125 85.1187 44.6125 84.0239V70.4121Z" fill="#C83737"/>
<path d="M124.836 40.6328C124.57 44.3047 123.211 47.1953 120.758 49.3047C118.32 51.4141 115.102 52.4688 111.102 52.4688C106.727 52.4688 103.281 51 100.766 48.0625C98.2656 45.1094 97.0156 41.0625 97.0156 35.9219V33.8359C97.0156 30.5547 97.5938 27.6641 98.75 25.1641C99.9062 22.6641 101.555 20.75 103.695 19.4219C105.852 18.0781 108.352 17.4062 111.195 17.4062C115.133 17.4062 118.305 18.4609 120.711 20.5703C123.117 22.6797 124.508 25.6406 124.883 29.4531H117.852C117.68 27.25 117.062 25.6562 116 24.6719C114.953 23.6719 113.352 23.1719 111.195 23.1719C108.852 23.1719 107.094 24.0156 105.922 25.7031C104.766 27.375 104.172 29.9766 104.141 33.5078V36.0859C104.141 39.7734 104.695 42.4688 105.805 44.1719C106.93 45.875 108.695 46.7266 111.102 46.7266C113.273 46.7266 114.891 46.2344 115.953 45.25C117.031 44.25 117.648 42.7109 117.805 40.6328H124.836ZM157.484 35.7109C157.484 39.0703 156.891 42.0156 155.703 44.5469C154.516 47.0781 152.812 49.0312 150.594 50.4062C148.391 51.7812 145.859 52.4688 143 52.4688C140.172 52.4688 137.648 51.7891 135.43 50.4297C133.211 49.0703 131.492 47.1328 130.273 44.6172C129.055 42.0859 128.438 39.1797 128.422 35.8984V34.2109C128.422 30.8516 129.023 27.8984 130.227 25.3516C131.445 22.7891 133.156 20.8281 135.359 19.4688C137.578 18.0938 140.109 17.4062 142.953 17.4062C145.797 17.4062 148.32 18.0938 150.523 19.4688C152.742 20.8281 154.453 22.7891 155.656 25.3516C156.875 27.8984 157.484 30.8438 157.484 34.1875V35.7109ZM150.359 34.1641C150.359 30.5859 149.719 27.8672 148.438 26.0078C147.156 24.1484 145.328 23.2188 142.953 23.2188C140.594 23.2188 138.773 24.1406 137.492 25.9844C136.211 27.8125 135.562 30.5 135.547 34.0469V35.7109C135.547 39.1953 136.188 41.8984 137.469 43.8203C138.75 45.7422 140.594 46.7031 143 46.7031C145.359 46.7031 147.172 45.7812 148.438 43.9375C149.703 42.0781 150.344 39.375 150.359 35.8281V34.1641ZM186.266 23.5703H175.812V52H168.781V23.5703H158.469V17.875H186.266V23.5703ZM202.93 39.5078H197.328V52H190.297V17.875H202.977C207.008 17.875 210.117 18.7734 212.305 20.5703C214.492 22.3672 215.586 24.9062 215.586 28.1875C215.586 30.5156 215.078 32.4609 214.062 34.0234C213.062 35.5703 211.539 36.8047 209.492 37.7266L216.875 51.6719V52H209.328L202.93 39.5078ZM197.328 33.8125H203C204.766 33.8125 206.133 33.3672 207.102 32.4766C208.07 31.5703 208.555 30.3281 208.555 28.75C208.555 27.1406 208.094 25.875 207.172 24.9531C206.266 24.0312 204.867 23.5703 202.977 23.5703H197.328V33.8125ZM240.219 44.9688H227.891L225.547 52H218.07L230.773 17.875H237.289L250.062 52H242.586L240.219 44.9688ZM229.789 39.2734H238.32L234.031 26.5L229.789 39.2734ZM260.727 52H253.695V17.875H260.727V52ZM267.266 52V17.875H277.766C280.766 17.875 283.445 18.5547 285.805 19.9141C288.18 21.2578 290.031 23.1797 291.359 25.6797C292.688 28.1641 293.352 30.9922 293.352 34.1641V35.7344C293.352 38.9062 292.695 41.7266 291.383 44.1953C290.086 46.6641 288.25 48.5781 285.875 49.9375C283.5 51.2969 280.82 51.9844 277.836 52H267.266ZM274.297 23.5703V46.3516H277.695C280.445 46.3516 282.547 45.4531 284 43.6562C285.453 41.8594 286.195 39.2891 286.227 35.9453V34.1406C286.227 30.6719 285.508 28.0469 284.07 26.2656C282.633 24.4688 280.531 23.5703 277.766 23.5703H274.297Z" fill="#D1D5DB"/>
<path d="M106.377 69.2227C106.291 70.1328 105.955 70.8438 105.369 71.3555C104.783 71.8633 104.004 72.1172 103.031 72.1172C102.352 72.1172 101.752 71.957 101.232 71.6367C100.717 71.3125 100.318 70.8535 100.037 70.2598C99.7559 69.666 99.6094 68.9766 99.5977 68.1914V67.3945C99.5977 66.5898 99.7402 65.8809 100.025 65.2676C100.311 64.6543 100.719 64.1816 101.25 63.8496C101.785 63.5176 102.402 63.3516 103.102 63.3516C104.043 63.3516 104.801 63.6074 105.375 64.1191C105.949 64.6309 106.283 65.3535 106.377 66.2871H104.9C104.83 65.6738 104.65 65.2324 104.361 64.9629C104.076 64.6895 103.656 64.5527 103.102 64.5527C102.457 64.5527 101.961 64.7891 101.613 65.2617C101.27 65.7305 101.094 66.4199 101.086 67.3301V68.0859C101.086 69.0078 101.25 69.7109 101.578 70.1953C101.91 70.6797 102.395 70.9219 103.031 70.9219C103.613 70.9219 104.051 70.791 104.344 70.5293C104.637 70.2676 104.822 69.832 104.9 69.2227H106.377ZM114.516 67.957C114.516 68.793 114.371 69.5273 114.082 70.1602C113.793 70.7891 113.379 71.2734 112.84 71.6133C112.305 71.9492 111.688 72.1172 110.988 72.1172C110.297 72.1172 109.68 71.9492 109.137 71.6133C108.598 71.2734 108.18 70.791 107.883 70.166C107.59 69.541 107.441 68.8203 107.438 68.0039V67.5234C107.438 66.6914 107.584 65.957 107.877 65.3203C108.174 64.6836 108.59 64.1973 109.125 63.8613C109.664 63.5215 110.281 63.3516 110.977 63.3516C111.672 63.3516 112.287 63.5195 112.822 63.8555C113.361 64.1875 113.777 64.668 114.07 65.2969C114.363 65.9219 114.512 66.6504 114.516 67.4824V67.957ZM113.033 67.5117C113.033 66.5664 112.854 65.8418 112.494 65.3379C112.139 64.834 111.633 64.582 110.977 64.582C110.336 64.582 109.834 64.834 109.471 65.3379C109.111 65.8379 108.928 66.5469 108.92 67.4648V67.957C108.92 68.8945 109.102 69.6191 109.465 70.1309C109.832 70.6426 110.34 70.8984 110.988 70.8984C111.645 70.8984 112.148 70.6484 112.5 70.1484C112.855 69.6484 113.033 68.918 113.033 67.957V67.5117ZM118.869 70.1426L121.037 63.4688H122.666L119.596 72H118.16L115.102 63.4688H116.725L118.869 70.1426ZM125.197 72H123.721V63.4688H125.197V72ZM127.02 72V63.4688H129.539C130.293 63.4688 130.961 63.6367 131.543 63.9727C132.129 64.3086 132.582 64.7852 132.902 65.4023C133.223 66.0195 133.383 66.7266 133.383 67.5234V67.9512C133.383 68.7598 133.221 69.4707 132.896 70.084C132.576 70.6973 132.117 71.1699 131.52 71.502C130.926 71.834 130.244 72 129.475 72H127.02ZM128.502 64.6641V70.8164H129.469C130.246 70.8164 130.842 70.5742 131.256 70.0898C131.674 69.6016 131.887 68.9023 131.895 67.9922V67.5176C131.895 66.5918 131.693 65.8848 131.291 65.3965C130.889 64.9082 130.305 64.6641 129.539 64.6641H128.502ZM137.484 68.9473H134.408V67.7988H137.484V68.9473ZM142.424 72H141.006V65.1504L138.914 65.8652V64.6641L142.242 63.4395H142.424V72ZM149.426 68.4316C148.949 68.9355 148.393 69.1875 147.756 69.1875C147.006 69.1875 146.408 68.9258 145.963 68.4023C145.518 67.875 145.295 67.1836 145.295 66.3281C145.295 65.7656 145.408 65.2559 145.635 64.7988C145.861 64.3418 146.184 63.9863 146.602 63.7324C147.02 63.4785 147.504 63.3516 148.055 63.3516C148.914 63.3516 149.596 63.6719 150.1 64.3125C150.604 64.9531 150.855 65.8105 150.855 66.8848V67.2832C150.855 68.8223 150.508 69.9961 149.812 70.8047C149.117 71.6133 148.08 72.0234 146.701 72.0352H146.531V70.8574H146.736C147.576 70.8457 148.221 70.6445 148.67 70.2539C149.119 69.8594 149.371 69.252 149.426 68.4316ZM148.055 68.0742C148.34 68.0742 148.607 67.9922 148.857 67.8281C149.107 67.6641 149.301 67.4375 149.438 67.1484V66.5918C149.438 65.9629 149.309 65.457 149.051 65.0742C148.793 64.6914 148.459 64.5 148.049 64.5C147.639 64.5 147.311 64.6699 147.064 65.0098C146.822 65.3457 146.701 65.7715 146.701 66.2871C146.701 66.8223 146.824 67.2539 147.07 67.582C147.316 67.9102 147.645 68.0742 148.055 68.0742ZM157.072 64.1191V65.6602H158.191V66.7148H157.072V70.2539C157.072 70.4961 157.119 70.6719 157.213 70.7812C157.311 70.8867 157.482 70.9395 157.729 70.9395C157.893 70.9395 158.059 70.9199 158.227 70.8809V71.9824C157.902 72.0723 157.59 72.1172 157.289 72.1172C156.195 72.1172 155.648 71.5137 155.648 70.3066V66.7148H154.605V65.6602H155.648V64.1191H157.072ZM162.604 66.9609C162.416 66.9297 162.223 66.9141 162.023 66.9141C161.371 66.9141 160.932 67.1641 160.705 67.6641V72H159.281V65.6602H160.641L160.676 66.3691C161.02 65.8184 161.496 65.543 162.105 65.543C162.309 65.543 162.477 65.5703 162.609 65.625L162.604 66.9609ZM167.115 72C167.053 71.8789 166.998 71.6816 166.951 71.4082C166.498 71.8809 165.943 72.1172 165.287 72.1172C164.65 72.1172 164.131 71.9355 163.729 71.5723C163.326 71.209 163.125 70.7598 163.125 70.2246C163.125 69.5488 163.375 69.0312 163.875 68.6719C164.379 68.3086 165.098 68.127 166.031 68.127H166.904V67.7109C166.904 67.3828 166.812 67.1211 166.629 66.9258C166.445 66.7266 166.166 66.627 165.791 66.627C165.467 66.627 165.201 66.709 164.994 66.873C164.787 67.0332 164.684 67.2383 164.684 67.4883H163.26C163.26 67.1406 163.375 66.8164 163.605 66.5156C163.836 66.2109 164.148 65.9727 164.543 65.8008C164.941 65.6289 165.385 65.543 165.873 65.543C166.615 65.543 167.207 65.7305 167.648 66.1055C168.09 66.4766 168.316 67 168.328 67.6758V70.5352C168.328 71.1055 168.408 71.5605 168.568 71.9004V72H167.115ZM165.551 70.9746C165.832 70.9746 166.096 70.9062 166.342 70.7695C166.592 70.6328 166.779 70.4492 166.904 70.2188V69.0234H166.137C165.609 69.0234 165.213 69.1152 164.947 69.2988C164.682 69.4824 164.549 69.7422 164.549 70.0781C164.549 70.3516 164.639 70.5703 164.818 70.7344C165.002 70.8945 165.246 70.9746 165.551 70.9746ZM172.424 70.9805C172.779 70.9805 173.074 70.877 173.309 70.6699C173.543 70.4629 173.668 70.207 173.684 69.9023H175.025C175.01 70.2969 174.887 70.666 174.656 71.0098C174.426 71.3496 174.113 71.6191 173.719 71.8184C173.324 72.0176 172.898 72.1172 172.441 72.1172C171.555 72.1172 170.852 71.8301 170.332 71.2559C169.812 70.6816 169.553 69.8887 169.553 68.877V68.7305C169.553 67.7656 169.811 66.9941 170.326 66.416C170.842 65.834 171.545 65.543 172.436 65.543C173.189 65.543 173.803 65.7637 174.275 66.2051C174.752 66.6426 175.002 67.2188 175.025 67.9336H173.684C173.668 67.5703 173.543 67.2715 173.309 67.0371C173.078 66.8027 172.783 66.6855 172.424 66.6855C171.963 66.6855 171.607 66.8535 171.357 67.1895C171.107 67.5215 170.98 68.0273 170.977 68.707V68.9355C170.977 69.623 171.1 70.1367 171.346 70.4766C171.596 70.8125 171.955 70.9805 172.424 70.9805ZM178.16 69.2812L177.527 69.9316V72H176.104V63H177.527V68.1914L177.973 67.6348L179.725 65.6602H181.436L179.08 68.3027L181.688 72H180.041L178.16 69.2812ZM185.045 72.1172C184.143 72.1172 183.41 71.834 182.848 71.2676C182.289 70.6973 182.01 69.9395 182.01 68.9941V68.8184C182.01 68.1855 182.131 67.6211 182.373 67.125C182.619 66.625 182.963 66.2363 183.404 65.959C183.846 65.6816 184.338 65.543 184.881 65.543C185.744 65.543 186.41 65.8184 186.879 66.3691C187.352 66.9199 187.588 67.6992 187.588 68.707V69.2812H183.445C183.488 69.8047 183.662 70.2188 183.967 70.5234C184.275 70.8281 184.662 70.9805 185.127 70.9805C185.779 70.9805 186.311 70.7168 186.721 70.1895L187.488 70.9219C187.234 71.3008 186.895 71.5957 186.469 71.8066C186.047 72.0137 185.572 72.1172 185.045 72.1172ZM184.875 66.6855C184.484 66.6855 184.168 66.8223 183.926 67.0957C183.688 67.3691 183.535 67.75 183.469 68.2383H186.182V68.1328C186.15 67.6562 186.023 67.2969 185.801 67.0547C185.578 66.8086 185.27 66.6855 184.875 66.6855ZM192.018 66.9609C191.83 66.9297 191.637 66.9141 191.438 66.9141C190.785 66.9141 190.346 67.1641 190.119 67.6641V72H188.695V65.6602H190.055L190.09 66.3691C190.434 65.8184 190.91 65.543 191.52 65.543C191.723 65.543 191.891 65.5703 192.023 65.625L192.018 66.9609ZM197.689 64.1191V65.6602H198.809V66.7148H197.689V70.2539C197.689 70.4961 197.736 70.6719 197.83 70.7812C197.928 70.8867 198.1 70.9395 198.346 70.9395C198.51 70.9395 198.676 70.9199 198.844 70.8809V71.9824C198.52 72.0723 198.207 72.1172 197.906 72.1172C196.812 72.1172 196.266 71.5137 196.266 70.3066V66.7148H195.223V65.6602H196.266V64.1191H197.689ZM199.459 68.7715C199.459 68.1504 199.582 67.5918 199.828 67.0957C200.074 66.5957 200.42 66.2129 200.865 65.9473C201.311 65.6777 201.822 65.543 202.4 65.543C203.256 65.543 203.949 65.8184 204.48 66.3691C205.016 66.9199 205.305 67.6504 205.348 68.5605L205.354 68.8945C205.354 69.5195 205.232 70.0781 204.99 70.5703C204.752 71.0625 204.408 71.4434 203.959 71.7129C203.514 71.9824 202.998 72.1172 202.412 72.1172C201.518 72.1172 200.801 71.8203 200.262 71.2266C199.727 70.6289 199.459 69.834 199.459 68.8418V68.7715ZM200.883 68.8945C200.883 69.5469 201.018 70.0586 201.287 70.4297C201.557 70.7969 201.932 70.9805 202.412 70.9805C202.893 70.9805 203.266 70.793 203.531 70.418C203.801 70.043 203.936 69.4941 203.936 68.7715C203.936 68.1309 203.797 67.623 203.52 67.248C203.246 66.873 202.873 66.6855 202.4 66.6855C201.936 66.6855 201.566 66.8711 201.293 67.2422C201.02 67.6094 200.883 68.1602 200.883 68.8945ZM206.291 68.7715C206.291 68.1504 206.414 67.5918 206.66 67.0957C206.906 66.5957 207.252 66.2129 207.697 65.9473C208.143 65.6777 208.654 65.543 209.232 65.543C210.088 65.543 210.781 65.8184 211.312 66.3691C211.848 66.9199 212.137 67.6504 212.18 68.5605L212.186 68.8945C212.186 69.5195 212.064 70.0781 211.822 70.5703C211.584 71.0625 211.24 71.4434 210.791 71.7129C210.346 71.9824 209.83 72.1172 209.244 72.1172C208.35 72.1172 207.633 71.8203 207.094 71.2266C206.559 70.6289 206.291 69.834 206.291 68.8418V68.7715ZM207.715 68.8945C207.715 69.5469 207.85 70.0586 208.119 70.4297C208.389 70.7969 208.764 70.9805 209.244 70.9805C209.725 70.9805 210.098 70.793 210.363 70.418C210.633 70.043 210.768 69.4941 210.768 68.7715C210.768 68.1309 210.629 67.623 210.352 67.248C210.078 66.873 209.705 66.6855 209.232 66.6855C208.768 66.6855 208.398 66.8711 208.125 67.2422C207.852 67.6094 207.715 68.1602 207.715 68.8945ZM214.904 72H213.48V63H214.904V72Z" fill="#D1D5DB"/>
</svg>
